<?xml version="1.0" encoding="UTF-8" standalone="no"?>
<!-- Created with Inkscape (http://www.inkscape.org/) -->

<svg
   width="42.61541mm"
   height="35.508865mm"
   viewBox="0 0 42.61541 35.508865"
   version="1.1"
   id="svg1"
   xmlns="http://www.w3.org/2000/svg"
   xmlns:svg="http://www.w3.org/2000/svg">
  <defs
     id="defs1">
    <rect
       x="22.203903"
       y="1028.6299"
       width="188.95976"
       height="108.75382"
       id="rect72" />
  </defs>
  <g
     id="layer2"
     transform="translate(-31.44353,-246.02842)">
    <g
       id="g76"
       transform="translate(12.767558,27.534061)">
      <path
         id="rect49-7-7"
         style="fill:#0058a1;fill-opacity:1;stroke:#0058a1;stroke-opacity:1"
         transform="rotate(-46.814818)"
         d="m -143.38,175.43271 h 2.20421 v 10.34286 H -143.38 Z m -8.66659,-0.25759 10.65905,0.28504" />
      <path
         style="fill:#0058a1;fill-opacity:1;stroke:#0058a1;stroke-width:2;stroke-dasharray:none;stroke-opacity:1"
         d="m 56.712047,220.49423 -7.46043,10.68198"
         id="path49-5-9" />
      <g
         id="g75">
        <path
           id="text34-7-8-8-4-1"
           style="font-weight:bold;font-size:22.5778px;font-family:'Times New Roman';-inkscape-font-specification:'Times New Roman,  Bold';text-align:end;text-anchor:end;fill:#048cff;fill-opacity:1"
           d="m 52.893767,218.50035 v 0.75964 c 0.4853,0.0843 0.92794,0.26653 1.32601,0.55087 0.57327,0.40423 1.04381,1.09876 1.41129,2.0836 0.36747,0.97748 0.55138,2.45474 0.55138,4.43177 0,1.66099 -0.1804,3.00998 -0.54053,4.04626 -0.36013,1.02894 -0.86323,1.77859 -1.50999,2.24896 -0.35191,0.25501 -0.76581,0.41918 -1.23816,0.49713 v 0.86093 c 2.38131,-0.13949 4.25046,-1.08702 5.60379,-2.84634 1.10978,-1.44051 1.6645,-3.1092 1.6645,-5.00538 0,-2.21956 -0.74615,-4.06763 -2.23811,-5.54488 -1.32131,-1.31477 -2.99867,-2.0078 -5.03018,-2.08256 z m 0.0087,-0.006 c -1.98831,0.0292 -3.68267,0.72758 -5.08134,2.0991 -1.50665,1.47726 -2.25981,3.32584 -2.25981,5.5454 0,1.97702 0.58079,3.68579 1.74201,5.1263 1.35082,1.67502 3.21802,2.57839 5.59914,2.71405 v -0.85732 c -0.83578,-0.13041 -1.50956,-0.53665 -2.01641,-1.22834 -0.89664,-1.22003 -1.34514,-3.10519 -1.34514,-5.65547 0,-2.14606 0.29065,-3.79271 0.87127,-4.93924 0.59903,-1.17337 1.42944,-1.85125 2.49028,-2.03863 z m -13.00386,0.11344 -5.50147,2.51354 0.19844,0.39688 c 0.53651,-0.23519 0.99253,-0.35295 1.36735,-0.35295 0.23519,0 0.44063,0.0626 0.61702,0.18758 0.18374,0.11759 0.30902,0.26441 0.37517,0.4408 0.0661,0.16904 0.0992,0.59899 0.0992,1.28985 v 7.75043 c 0,0.94074 -0.0481,1.53955 -0.14366,1.79679 -0.0955,0.25723 -0.27894,0.45969 -0.55087,0.60668 -0.27193,0.14699 -0.72795,0.22014 -1.36736,0.22014 h -0.39687 v 0.40824 h 7.87135 v -0.40824 h -0.34158 c -0.56591,0 -0.97732,-0.0807 -1.23455,-0.24236 -0.25723,-0.16169 -0.42662,-0.36765 -0.50746,-0.61754 -0.0808,-0.25723 -0.12092,-0.84502 -0.12092,-1.76371 V 218.6081 Z m -14.59184,0 -5.50147,2.51354 0.19844,0.39688 c 0.53651,-0.23519 0.99253,-0.35295 1.36735,-0.35295 0.23519,0 0.44063,0.0626 0.61702,0.18758 0.18374,0.11759 0.30902,0.26441 0.37517,0.4408 0.0662,0.16904 0.0992,0.59899 0.0992,1.28985 v 7.75043 c 0,0.94074 -0.0481,1.53955 -0.14366,1.79679 -0.0955,0.25723 -0.27894,0.45969 -0.55087,0.60668 -0.27193,0.14699 -0.72795,0.22014 -1.36736,0.22014 h -0.39687 v 0.40824 h 7.87135 v -0.40824 h -0.34158 c -0.56591,0 -0.97732,-0.0807 -1.23455,-0.24236 -0.25723,-0.16169 -0.42662,-0.36765 -0.50746,-0.61754 -0.0808,-0.25723 -0.12093,-0.84502 -0.12093,-1.76371 V 218.6081 Z" />
      </g>
      <text
         xml:space="preserve"
         transform="matrix(0.2254939,0,0,0.2254939,13.675175,7.1639917)"
         id="text72"
         style="font-style:normal;font-variant:normal;font-weight:bold;font-stretch:normal;font-size:26.6667px;line-height:0.9;font-family:Garamond;-inkscape-font-specification:'Garamond Bold';font-variation-settings:normal;text-align:end;text-decoration-color:#000000;white-space:pre;shape-inside:url(#rect72);shape-padding:0;display:inline;fill:#007feb;fill-opacity:1;stroke:none;stroke-width:5.66929;stroke-linecap:butt;stroke-linejoin:miter;stroke-miterlimit:4;stroke-dasharray:none;stroke-dashoffset:0;stroke-opacity:1"
         x="0"
         y="0"><tspan
           x="22.203125"
           y="1046.3087"
           id="tspan2"><tspan
             dx="0 0 0.44490671 0 0.44490862 0 0.44491243 0 0.44491243 0 0.44491243 0 0.44491243 0 0.44491243"
             style="text-align:justify"
             id="tspan1">W E A T H E R  </tspan></tspan><tspan
           x="22.203125"
           y="1070.3087"
           id="tspan4"><tspan
             style="text-align:justify"
             id="tspan3">H     E     A     D  
</tspan></tspan><tspan
           x="22.203125"
           y="1094.3087"
           id="tspan6"><tspan
             style="text-align:justify"
             id="tspan5">O  N  L  I  N  E</tspan></tspan></text>
    </g>
  </g>
</svg>
